<svg width="128" height="128" viewBox="0 0 128 128" fill="none" xmlns="http://www.w3.org/2000/svg">
<g clip-path="url(#clip0)">
<path fill-rule="evenodd" clip-rule="evenodd" d="M44.375 63.9836V98.1636L56.441 98.1366C68.929 98.1046 68.839 98.1086 70.668 97.8196C79.93 96.3666 85.336 89.9876 85.813 79.9566C86.266 70.4366 81.523 63.5776 73.403 62.0036C73.11 61.9456 73.203 61.8636 73.747 61.7066C79.173 60.1486 83.094 53.8826 83.094 46.7806C83.094 38.4566 78.661 32.2376 71.43 30.4136C68.993 29.8006 69.231 29.8086 55.907 29.8086H44.377V63.9846L44.375 63.9836ZM66.403 38.8286C71.552 39.6996 74.068 42.6136 74.228 47.8986C74.392 53.4296 71.868 57.0236 66.931 58.2936C65.314 58.7076 64.278 58.7666 58.31 58.7666H53.228V48.7786C53.228 43.2856 53.248 38.7706 53.267 38.7436C53.333 38.6616 65.887 38.7436 66.404 38.8286H66.403ZM67.415 67.2816C73.513 68.1846 76.517 71.4576 76.779 77.4926C77.056 83.9076 73.986 87.9696 68.111 88.9536C66.798 89.1766 66.161 89.1926 59.724 89.1926L53.228 89.1966V67.1186L59.935 67.1416C65.849 67.1656 66.735 67.1816 67.415 67.2816Z" fill="#F6F1FB"/>
<path fill-rule="evenodd" clip-rule="evenodd" d="M83.7077 0.628875C83.5007 0.944875 83.2857 1.30087 83.2237 1.41387C83.1617 1.52688 82.9617 1.82788 82.7817 2.08188C82.6017 2.33588 82.4537 2.57788 82.4537 2.62188C82.4537 2.66388 82.3637 2.81588 82.2537 2.96088C81.9537 3.35888 81.6567 3.83188 81.6567 3.91388C81.6567 3.95688 81.6097 4.02688 81.5597 4.07387C81.5047 4.12488 81.1877 4.59788 80.8527 5.13287C80.5197 5.66787 80.2037 6.14087 80.1527 6.19088C80.0987 6.23787 80.0557 6.30888 80.0557 6.35087C80.0557 6.43388 79.6957 7.01088 79.5947 7.08988C79.5597 7.11688 79.4227 7.34788 79.2857 7.60488C79.1487 7.86287 79.0197 8.07788 79.0007 8.07788C78.9817 8.07788 78.8527 8.26187 78.7237 8.47987C78.5907 8.69987 78.3137 9.14488 78.1097 9.46488C77.6377 10.2029 77.6917 10.1169 77.4147 10.5749C77.2894 10.7787 77.1566 10.9778 77.0167 11.1719C76.9267 11.2849 76.8567 11.4099 76.8567 11.4489C76.8527 11.4889 76.6727 11.7729 76.4537 12.0859C76.2347 12.3989 76.0557 12.6879 76.0557 12.7259C76.0557 12.7699 75.9777 12.9019 75.8797 13.0309C75.5987 13.3949 75.2547 13.9379 75.2547 14.0199C75.2547 14.0629 75.2387 14.0939 75.2147 14.0939C75.1917 14.0939 74.9967 14.3869 74.7747 14.7379C74.5547 15.0939 74.2547 15.5629 74.1097 15.7809C73.9617 16.0009 73.7347 16.3629 73.6027 16.5939C73.4814 16.8047 73.3496 17.0093 73.2077 17.2069C73.0949 17.3599 72.9945 17.5217 72.9077 17.6909C72.8251 17.8503 72.7308 18.0033 72.6257 18.1489C72.5517 18.2389 72.3877 18.4889 72.2587 18.6949C71.8367 19.4019 71.3917 20.0779 71.3247 20.1329C71.2857 20.1639 71.2547 20.2189 71.2547 20.2539C71.2547 20.3359 70.9377 20.8439 70.6567 21.2109C70.5467 21.3589 70.4537 21.5079 70.4537 21.5469C70.4537 21.5859 70.2857 21.8589 70.0787 22.1519C69.9217 22.3697 69.7759 22.5953 69.6417 22.8279C69.5627 22.9999 68.3327 24.9339 68.2427 25.0279C68.1663 25.1332 68.0997 25.2454 68.0437 25.3629C67.9251 25.5845 67.7907 25.7974 67.6417 25.9999C67.4967 26.1999 67.3167 26.4839 67.2427 26.6329C67.1295 26.8421 67.0015 27.0429 66.8597 27.2339C66.7277 27.4179 66.6137 27.5859 66.6137 27.6089C66.6137 27.6289 64.6727 27.6329 62.2977 27.6169L57.9777 27.5859L57.8477 27.7769C57.7737 27.8829 57.6727 28.0349 57.6177 28.1169L57.5207 28.2619L52.3757 28.3279C49.2897 28.3709 47.1027 28.4259 46.9067 28.4679L46.1097 28.6449C45.5827 28.7619 44.7197 29.1479 44.4617 29.3869C44.3677 29.4689 44.2117 29.5939 44.1097 29.6679C43.8017 29.8779 42.9347 31.1599 42.9347 31.4019C42.9347 31.4489 42.8797 31.6289 42.8097 31.8009C42.7397 31.9769 42.6217 32.3869 42.5477 32.7189C42.1877 34.3319 42.1917 34.2809 42.1877 43.9259V52.5199L41.6577 53.2699V67.0499L41.3447 67.5389C41.1727 67.8089 40.9927 68.0699 40.9457 68.1209C40.8957 68.1709 40.8557 68.2419 40.8557 68.2769C40.8557 68.3469 40.5907 68.7569 40.2467 69.2299C40.1417 69.3749 40.0557 69.5269 40.0557 69.5659C40.0557 69.6089 39.9697 69.7619 39.8637 69.9059C39.5127 70.3859 39.2537 70.7889 39.2537 70.8589C39.2537 70.8989 39.2277 70.9569 39.1877 70.9839C39.1177 71.0389 38.6527 71.7579 38.2577 72.4139C38.1495 72.5987 38.031 72.7773 37.9027 72.9489C37.7803 73.1189 37.6707 73.2977 37.5747 73.4839C37.4647 73.6839 37.3047 73.9369 37.2147 74.0469C37.089 74.2174 36.977 74.3977 36.8797 74.5859C36.8058 74.7388 36.7167 74.8838 36.6137 75.0189C36.4807 75.1559 36.0557 75.8669 36.0557 75.9489C36.0557 75.9889 36.0357 76.0189 36.0087 76.0189C35.9847 76.0189 35.8207 76.2459 35.6487 76.5229C35.4777 76.7969 35.3167 77.0229 35.2977 77.0229C35.2737 77.0229 35.2547 77.0579 35.2547 77.0969C35.2547 77.1829 34.7937 77.9169 34.5947 78.1569C34.5167 78.2459 34.4547 78.3509 34.4547 78.3899C34.4547 78.4289 34.2777 78.7189 34.0547 79.0309C33.8367 79.3439 33.6567 79.6329 33.6567 79.6709C33.6567 79.7149 33.5907 79.8309 33.5087 79.9409C33.3877 80.1009 33.2277 80.3439 32.8137 81.0039C32.7897 81.0389 32.6297 81.2929 32.4537 81.5619C32.2777 81.8309 32.0987 82.1209 32.0557 82.1989C31.9227 82.4449 31.5517 83.0079 31.5047 83.0309C31.4807 83.0469 31.3557 83.2649 31.2237 83.5189C31.0867 83.7689 30.9497 83.9989 30.9147 84.0309C30.8327 84.0939 30.4547 84.6799 30.4547 84.7419C30.4547 84.7689 30.3167 84.9919 30.1447 85.2379C29.9777 85.4839 29.6607 85.9679 29.4417 86.3199C29.2277 86.6679 29.0207 86.9799 28.9817 87.0079C28.9417 87.0349 28.8757 87.1559 28.8287 87.2729C28.7857 87.3939 28.6257 87.6559 28.4777 87.8589C28.3287 88.0589 28.1457 88.3469 28.0707 88.4919C27.9636 88.6917 27.8423 88.8835 27.7077 89.0659C27.5698 89.2576 27.4433 89.4573 27.3287 89.6639C27.2467 89.8239 27.1257 90.0189 27.0667 90.0939C26.8438 90.425 26.6277 90.7608 26.4187 91.1009C26.1217 91.5779 25.8287 92.0269 25.7667 92.0969C25.7077 92.1669 25.6527 92.2569 25.6527 92.3009C25.6527 92.3399 25.4727 92.6289 25.2547 92.9369C25.0357 93.2499 24.8557 93.5389 24.8557 93.5819C24.8557 93.6209 24.7777 93.7579 24.6807 93.8819C24.3907 94.2619 24.0557 94.7919 24.0557 94.8709C24.0527 94.8947 24.045 94.9177 24.0329 94.9385C24.0209 94.9592 24.0049 94.9774 23.9857 94.9919C23.9187 95.0469 23.5047 95.6829 23.0517 96.4289C22.9431 96.6153 22.8242 96.7956 22.6957 96.9689C22.6257 97.0539 22.4807 97.2889 22.3757 97.4889C22.2707 97.6889 22.0987 97.9569 21.9967 98.0859C21.8696 98.2634 21.7511 98.4469 21.6417 98.6359C21.5477 98.8079 21.3287 99.1519 21.1617 99.4019C20.9947 99.6519 20.8557 99.8939 20.8557 99.9419C20.8557 99.9899 20.8327 100.031 20.8097 100.031C20.7857 100.031 20.6217 100.254 20.4497 100.531C20.2777 100.804 20.1177 101.031 20.0947 101.031C20.0747 101.031 20.0547 101.062 20.0547 101.101C20.0547 101.183 19.5397 102.004 19.3677 102.195C19.3057 102.265 19.2547 102.355 19.2547 102.398C19.2547 102.438 19.0747 102.726 18.8557 103.038C18.6367 103.35 18.4577 103.64 18.4577 103.683C18.4537 103.723 18.3877 103.843 18.3017 103.949C18.1337 104.164 16.9307 106.051 16.7977 106.316C16.7477 106.406 16.5627 106.691 16.3837 106.946C16.2037 107.199 16.0557 107.437 16.0557 107.48C16.0557 107.52 15.9657 107.676 15.8527 107.82C15.5557 108.215 15.2547 108.691 15.2547 108.777C15.2547 108.817 15.2117 108.89 15.1567 108.937C15.1067 108.984 14.8757 109.324 14.6457 109.691C14.1607 110.473 14.1527 110.481 14.1607 110.133C14.1647 109.988 14.1487 109.883 14.1257 109.898C14.0357 109.968 14.0947 112.992 14.1847 112.957C14.2507 112.93 14.2547 112.937 14.1957 112.988C14.1217 113.055 14.1257 113.207 14.2157 114.074C14.2427 114.344 14.3357 114.949 14.3877 115.211C14.3987 115.265 14.4077 115.394 14.4077 115.5C14.4077 115.601 14.4457 115.703 14.4887 115.726C14.5357 115.746 14.5477 115.781 14.5167 115.804C14.4887 115.828 14.4767 115.929 14.4927 116.027C14.5087 116.129 14.5437 116.195 14.5667 116.176C14.5947 116.156 14.6027 116.183 14.5827 116.234C14.5517 116.344 14.8017 117.301 14.9227 117.535C14.9657 117.617 14.9847 117.683 14.9657 117.683C14.9497 117.683 14.9887 117.828 15.0597 118.003C15.1257 118.176 15.2157 118.449 15.2547 118.605C15.2937 118.762 15.3487 118.887 15.3757 118.887C15.3987 118.887 15.4107 118.91 15.3957 118.937C15.3837 118.969 15.4777 119.215 15.6057 119.492C15.7357 119.765 15.8917 120.129 15.9537 120.292C16.0157 120.455 16.1607 120.75 16.2737 120.945C16.8057 121.844 16.9267 122.031 16.9737 122.031C17.0007 122.031 17.0087 122.058 16.9937 122.09C16.9777 122.125 17.0827 122.312 17.2307 122.508C17.3797 122.707 17.5597 122.965 17.6337 123.086C18.0397 123.746 19.7307 125.426 20.5637 125.988C21.2037 126.422 21.9267 126.859 22.1027 126.922C22.1927 126.952 22.5517 127.102 22.8987 127.25C23.2427 127.398 23.8207 127.605 24.1767 127.703L24.8287 127.883H103.177L103.845 127.699C104.367 127.545 104.879 127.362 105.38 127.149C106.162 126.816 106.462 126.644 107.52 125.945C108.529 125.273 110.068 123.621 111.005 122.199C111.224 121.863 112.005 120.476 112.005 120.422C112.005 120.39 112.119 120.132 112.259 119.844C112.603 119.124 112.986 118.039 113.326 116.816C113.494 116.211 113.529 116.039 113.747 114.574L113.892 113.637L113.896 107.988C113.904 101.711 113.935 100.75 114.271 96.1179C114.486 93.1439 114.576 92.3629 115.071 88.9299C115.318 87.2029 116.037 83.6949 116.408 82.3979C116.544 81.9259 116.72 81.2809 116.806 80.9649C116.888 80.6519 117.033 80.1839 117.122 79.9299C117.216 79.6759 117.365 79.2539 117.454 78.9959C118.014 77.3709 118.767 75.6959 119.497 74.4609C120.201 73.2769 120.33 73.0819 120.947 72.3049C122.275 70.6329 123.798 69.4449 125.419 68.8119C126.224 68.4959 126.947 68.2819 127.501 68.1869L128.005 68.1049V59.8599L127.501 59.7779C126.677 59.6419 125.228 59.1419 124.548 58.7579C124.431 58.6883 124.311 58.6249 124.188 58.5679C124.173 58.5679 123.994 58.4459 123.787 58.3019C123.58 58.1529 123.388 58.0319 123.361 58.0319C123.31 58.0319 122.576 57.3989 121.981 56.8369C121.521 56.4029 120.408 55.0209 120.091 54.4889C120.011 54.3527 119.928 54.2187 119.841 54.0869C119.771 54.0169 119.161 52.9349 118.869 52.3569C118.435 51.5169 117.829 50.0629 117.455 48.9699C117.345 48.6579 117.234 48.3466 117.122 48.0359C117.032 47.7819 116.888 47.3169 116.806 47.0009C116.72 46.6879 116.544 46.0399 116.408 45.5669C116.037 44.2739 115.318 40.7669 115.072 39.0399C114.576 35.6179 114.494 34.8679 114.271 31.8489C113.935 27.2709 113.904 26.2549 113.896 20.0129C113.892 14.4929 113.888 14.3829 113.771 13.5949C113.71 13.1944 113.652 12.7934 113.599 12.3919C113.47 11.4189 112.771 9.18488 112.259 8.12588C112.119 7.83588 112.005 7.57587 112.005 7.54787C112.005 7.48887 111.225 6.10187 111.005 5.76988C110.083 4.36788 108.47 2.62587 107.548 2.03987C107.404 1.94987 107.044 1.71587 106.755 1.51987C106.462 1.32487 106.15 1.14487 106.06 1.11387C105.97 1.08687 105.595 0.926875 105.224 0.762875C104.788 0.572428 104.342 0.407809 103.888 0.269875L103.232 0.082875L93.6577 0.066875L84.0797 0.046875L83.7087 0.629875L83.7077 0.628875ZM67.8177 29.8099C69.5437 29.9229 71.5127 30.2829 72.6177 30.6889C75.0397 31.5789 76.5827 32.4969 78.1767 34.0049C83.5557 39.0909 84.7627 48.8649 80.8647 55.7199C79.1297 58.7709 76.3487 61.1339 73.7707 61.7549C73.1307 61.9079 73.1377 61.9149 74.1767 62.1259C82.5987 63.8489 87.2707 72.5959 85.4967 83.3099C84.1567 91.3849 78.6527 96.7439 70.5277 97.8839C68.6607 98.1499 68.1677 98.1579 56.0977 98.1579H44.3247V29.7429H55.5627C62.2027 29.7429 67.2187 29.7699 67.8167 29.8089L67.8177 29.8099ZM53.2817 48.7399V58.7099L58.9767 58.6819C65.1407 58.6539 64.9657 58.6619 66.7617 58.2639C71.6797 57.1739 74.3017 53.5609 74.1767 48.0369C74.0667 43.3649 72.1297 40.5059 68.2427 39.2789C66.7927 38.8219 65.9067 38.7749 58.9497 38.7749L53.2817 38.7709V48.7399ZM53.2817 78.1309V89.1349L60.2817 89.1119C67.9027 89.0879 67.5787 89.0999 69.1877 88.6939C74.0897 87.4589 76.5937 84.0879 76.7347 78.5259C76.8867 72.5289 74.2577 68.8499 68.9647 67.6389C66.9727 67.1819 65.9647 67.1309 58.9767 67.1309L53.2817 67.1269V78.1299V78.1309ZM12.8597 88.4349C12.8597 88.5049 12.8827 88.6069 12.9147 88.6609C12.9537 88.7359 12.9577 88.7079 12.9297 88.5599C12.8867 88.3139 12.8557 88.2629 12.8597 88.4349ZM13.6687 95.1499C13.6687 95.2789 13.6797 95.3299 13.6957 95.2669C13.7075 95.189 13.7075 95.1098 13.6957 95.0319C13.6797 94.9659 13.6687 95.0209 13.6687 95.1499ZM13.7307 95.9429C13.7507 96.0679 13.7617 96.2859 13.7617 96.4269C13.7617 96.5719 13.7857 96.6849 13.8087 96.6849C13.8557 96.6849 13.7857 95.8219 13.7307 95.7589C13.7107 95.7359 13.7107 95.8179 13.7307 95.9429ZM14.0117 99.8759C13.9917 99.8999 13.9767 99.9929 13.9767 100.087C13.9767 100.298 14.0357 100.236 14.0547 100.001C14.0707 99.8179 14.0667 99.8059 14.0117 99.8759ZM14.0317 101.256C14.0317 101.392 14.0517 101.501 14.0787 101.501C14.1017 101.501 14.1137 101.407 14.1017 101.291C14.0747 100.989 14.0317 100.966 14.0317 101.255V101.256ZM14.1717 103.685C14.1217 103.751 14.1287 104.055 14.1837 104.013C14.2117 103.993 14.2307 103.903 14.2307 103.81C14.2307 103.626 14.2267 103.618 14.1717 103.685ZM14.1717 104.161C14.1367 104.243 14.1447 104.923 14.1837 104.876C14.2117 104.841 14.2337 104.111 14.2077 104.111C14.1997 104.111 14.1877 104.134 14.1717 104.161ZM14.1717 105.025C14.1517 105.048 14.1367 105.142 14.1367 105.235C14.1367 105.443 14.1997 105.376 14.2187 105.15C14.2347 104.97 14.2307 104.954 14.1717 105.025ZM14.1367 105.728C14.1367 105.88 14.1567 105.982 14.1767 105.954C14.2307 105.884 14.2347 105.447 14.1797 105.447C14.1567 105.447 14.1367 105.572 14.1367 105.727V105.728ZM14.1367 106.259C14.1367 106.376 14.1527 106.45 14.1717 106.427C14.2347 106.349 14.2467 106.127 14.1877 106.083C14.1607 106.06 14.1377 106.134 14.1377 106.259H14.1367ZM14.1377 107.447C14.1377 107.794 14.1527 108.056 14.1717 108.032C14.2267 107.962 14.2387 107.032 14.1877 106.919C14.1567 106.857 14.1407 107.056 14.1377 107.446V107.447ZM14.1377 108.458C14.1377 108.72 14.2147 108.72 14.2227 108.458C14.2267 108.345 14.2077 108.255 14.1837 108.255C14.1567 108.255 14.1367 108.345 14.1367 108.458H14.1377ZM14.1367 108.935C14.1367 109.181 14.1717 109.169 14.2117 108.907C14.2267 108.806 14.2147 108.724 14.1877 108.724C14.1607 108.724 14.1377 108.821 14.1377 108.934L14.1367 108.935ZM14.1647 109.4C14.1917 109.68 14.2427 109.732 14.2427 109.474C14.2427 109.361 14.2187 109.251 14.1917 109.228C14.1647 109.204 14.1517 109.275 14.1647 109.4Z" fill="#790AF6"/>
<path fill-rule="evenodd" clip-rule="evenodd" d="M24.641 0.183781C23.223 0.487781 21.793 1.11378 20.711 1.90978C20.501 2.06278 20.313 2.19078 20.293 2.19078C20.254 2.19078 19.098 3.19478 18.953 3.35878C17.969 4.46078 17.773 4.69478 17.329 5.33178C17.024 5.77678 16.192 7.17178 16.098 7.40578C16.0049 7.61958 15.9086 7.83194 15.809 8.04278C15.18 9.36278 14.614 11.2308 14.375 12.7458C14.114 14.4058 14.118 14.3128 14.11 20.4138C14.102 26.0698 14.07 27.3478 13.895 29.8438C13.879 30.0628 13.817 30.9218 13.755 31.7498C13.695 32.5778 13.637 33.4338 13.621 33.6558C13.586 34.3008 13.301 36.6798 13.091 38.0698C13.0025 38.6325 12.9225 39.1966 12.851 39.7618C12.781 40.3398 12.047 43.9648 11.832 44.7888C11.52 45.9998 10.957 47.9098 10.723 48.5698C10.6496 48.7692 10.5796 48.9699 10.513 49.1718C9.763 51.6598 7.68 55.2378 6.055 56.8358C5.2 57.6718 3.297 59.0358 2.977 59.0358C2.934 59.0358 2.754 59.0978 2.582 59.1718C2.036 59.4098 1.063 59.6988 0.52 59.7818L0 59.8628L0.012 63.9768L0.028 68.0898L0.614 68.2028C3.231 68.7028 5.821 70.4028 7.329 72.6018C7.419 72.7338 7.509 72.8548 7.528 72.8628C7.578 72.8948 8.309 74.0308 8.567 74.4838C8.981 75.2068 9.54 76.3318 9.79 76.9568C9.93 77.3048 10.086 77.6678 10.133 77.7618C10.321 78.1128 11.263 80.9378 11.211 80.9998C11.196 81.0198 11.207 81.0348 11.235 81.0348C11.266 81.0348 11.29 81.0748 11.293 81.1208C11.297 81.1678 11.43 81.6878 11.59 82.2808C11.852 83.2338 11.993 83.8008 12.028 84.0158L12.157 84.6168C12.29 85.2108 12.286 85.1838 12.399 85.7848C12.446 86.0238 12.509 86.3088 12.536 86.4218C12.649 86.8908 12.899 88.3198 12.938 88.7618C12.954 88.9058 12.977 89.0738 12.993 89.1288C13.008 89.1838 13.032 89.3478 13.047 89.4958C13.062 89.6438 13.11 89.9728 13.149 90.2308C13.282 91.0818 13.539 93.1638 13.579 93.6758C13.622 94.2888 13.633 94.4178 13.676 94.8478C13.692 95.0308 13.719 95.3588 13.735 95.5738C13.751 95.7888 13.774 95.9878 13.79 96.0198C13.801 96.0468 13.817 96.3278 13.825 96.6448C13.829 96.9608 13.855 97.2188 13.883 97.2188C13.911 97.2188 13.918 97.2618 13.903 97.3128C13.888 97.3638 13.903 97.4418 13.938 97.4878C13.985 97.5548 13.985 97.5628 13.934 97.5278C13.852 97.4678 13.844 97.6448 13.922 97.8238C13.958 97.9058 13.958 97.9608 13.922 97.9878C13.887 98.0158 13.887 98.0778 13.911 98.1448C13.938 98.2068 13.95 98.4298 13.941 98.6448C13.934 98.8548 13.941 99.0148 13.961 98.9998C13.985 98.9838 13.997 99.1798 13.993 99.4338C13.989 99.6878 14 99.8828 14.02 99.8668C14.04 99.8558 14.06 100.117 14.063 100.453C14.066 100.789 14.086 101.563 14.106 102.168C14.122 102.778 14.137 103.371 14.137 103.492C14.141 103.613 14.161 103.695 14.184 103.676C14.208 103.66 14.227 103.719 14.227 103.809C14.227 103.902 14.207 103.992 14.18 104.012C14.1656 104.025 14.154 104.041 14.1459 104.06C14.1378 104.078 14.1334 104.097 14.133 104.117C14.133 104.152 14.161 104.16 14.196 104.137C14.231 104.106 14.243 104.117 14.219 104.164C14.165 104.274 14.145 104.707 14.196 104.668C14.262 104.618 14.246 104.808 14.18 104.895C14.133 104.953 14.133 104.996 14.184 105.07C14.231 105.145 14.234 105.207 14.188 105.309C14.157 105.383 14.153 105.445 14.176 105.445C14.231 105.445 14.231 105.848 14.172 105.961C14.149 106.004 14.157 106.059 14.184 106.082C14.243 106.125 14.234 106.301 14.168 106.434C14.145 106.484 14.157 106.516 14.196 106.516C14.243 106.52 14.246 106.536 14.211 106.566C14.181 106.594 14.165 106.691 14.176 106.786C14.208 107.043 14.204 107.937 14.168 108.106C14.153 108.188 14.161 108.254 14.188 108.254C14.25 108.254 14.227 108.609 14.161 108.672C14.125 108.703 14.129 108.722 14.168 108.722C14.227 108.722 14.219 109.004 14.157 109.132C14.145 109.16 14.157 109.199 14.188 109.222C14.215 109.246 14.238 109.363 14.238 109.48C14.238 109.645 14.227 109.668 14.184 109.594C14.149 109.524 14.137 109.609 14.153 109.894C14.165 110.133 14.149 110.332 14.113 110.391C14.067 110.469 14.071 110.473 14.141 110.421C14.188 110.391 14.415 110.063 14.645 109.691C14.872 109.324 15.102 108.984 15.157 108.938C15.212 108.892 15.254 108.816 15.254 108.778C15.254 108.691 15.555 108.215 15.852 107.82C15.962 107.676 16.055 107.52 16.055 107.48C16.055 107.438 16.2 107.2 16.379 106.945C16.558 106.69 16.747 106.406 16.793 106.316C16.93 106.051 18.133 104.164 18.301 103.949C18.387 103.844 18.454 103.723 18.454 103.684C18.454 103.641 18.634 103.352 18.856 103.039C19.075 102.727 19.254 102.438 19.254 102.399C19.254 102.355 19.305 102.266 19.368 102.195C19.54 102.004 20.055 101.184 20.055 101.102C20.055 101.062 20.071 101.032 20.095 101.032C20.119 101.032 20.278 100.805 20.45 100.532C20.622 100.254 20.782 100.032 20.81 100.032C20.833 100.032 20.852 99.9878 20.852 99.9418C20.852 99.8958 20.992 99.6518 21.161 99.4018C21.329 99.1518 21.543 98.8088 21.641 98.6368C21.735 98.4648 21.895 98.2188 21.997 98.0858C22.098 97.9568 22.267 97.6868 22.375 97.4878C22.4694 97.3072 22.5763 97.1334 22.695 96.9678C22.8207 96.7932 22.9395 96.6137 23.051 96.4298C23.504 95.6838 23.918 95.0468 23.985 94.9918C24.004 94.9774 24.02 94.9594 24.032 94.9388C24.0441 94.9182 24.0519 94.8954 24.055 94.8718C24.055 94.7918 24.391 94.2618 24.68 93.8818C24.774 93.7578 24.852 93.6218 24.852 93.5818C24.852 93.5388 25.032 93.2498 25.254 92.9368C25.474 92.6288 25.653 92.3398 25.653 92.3008C25.653 92.2578 25.703 92.1678 25.766 92.0978C25.829 92.0278 26.122 91.5778 26.418 91.1018C26.715 90.6248 27.004 90.1718 27.067 90.0938C27.1633 89.9561 27.2508 89.8125 27.329 89.6638C27.415 89.4998 27.582 89.2338 27.707 89.0658C27.832 88.8978 27.993 88.6408 28.071 88.4918C28.145 88.3478 28.329 88.0588 28.477 87.8588C28.625 87.6558 28.786 87.3948 28.829 87.2728C28.875 87.1558 28.942 87.0348 28.981 87.0078C29.02 86.9798 29.227 86.6678 29.441 86.3198C29.657 85.9688 29.973 85.4838 30.145 85.2378C30.313 84.9918 30.454 84.7698 30.454 84.7418C30.454 84.6798 30.832 84.0938 30.914 84.0318C30.95 83.9998 31.086 83.7698 31.219 83.5198C31.352 83.2658 31.481 83.0468 31.504 83.0308C31.547 83.0078 31.922 82.4448 32.055 82.1988C32.3035 81.7978 32.5561 81.3994 32.813 81.0038C33.227 80.3438 33.387 80.1018 33.508 79.9408C33.586 79.8318 33.657 79.7148 33.657 79.6708C33.657 79.6328 33.837 79.3438 34.055 79.0308C34.273 78.7178 34.454 78.4298 34.454 78.3908C34.454 78.3518 34.516 78.2458 34.594 78.1558C34.794 77.9178 35.254 77.1838 35.254 77.0978C35.254 77.0578 35.274 77.0228 35.294 77.0228C35.317 77.0228 35.477 76.7968 35.649 76.5228C35.821 76.2458 35.981 76.0198 36.009 76.0198C36.032 76.0198 36.055 75.9878 36.055 75.9498C36.055 75.8668 36.481 75.1558 36.614 75.0198C36.664 74.9648 36.782 74.7728 36.879 74.5858C36.9765 74.3971 37.0888 74.2166 37.215 74.0458C37.305 73.9378 37.465 73.6838 37.575 73.4838C37.6709 73.2976 37.7806 73.1187 37.903 72.9488C37.973 72.8588 38.133 72.6168 38.258 72.4138C38.648 71.7578 39.118 71.0388 39.188 70.9838C39.2253 70.9521 39.2489 70.9074 39.254 70.8588C39.254 70.7888 39.508 70.3868 39.86 69.9058C39.965 69.7618 40.055 69.6088 40.055 69.5658C40.055 69.5268 40.141 69.3748 40.247 69.2298C40.59 68.7578 40.852 68.3478 40.852 68.2768C40.852 68.2418 40.895 68.1718 40.942 68.1208C40.992 68.0708 41.172 67.8088 41.344 67.5388L41.653 67.0508V53.2698L41.923 52.8948L42.188 52.5198V43.9258C42.188 34.2808 42.188 34.3318 42.548 32.7188C42.6159 32.4077 42.703 32.1011 42.809 31.8008C42.875 31.6288 42.934 31.4488 42.934 31.4028C42.934 31.1598 43.801 29.8788 44.106 29.6678C44.211 29.5938 44.368 29.4688 44.458 29.3868C44.719 29.1488 45.578 28.7618 46.106 28.6448L46.906 28.4688C47.098 28.4258 49.289 28.3708 52.376 28.3288L57.52 28.2618L57.618 28.1168C57.668 28.0348 57.774 27.8828 57.844 27.7768L57.977 27.5868L62.293 27.6168C64.673 27.6328 66.613 27.6288 66.613 27.6098C66.613 27.5858 66.723 27.4178 66.86 27.2348C66.993 27.0508 67.165 26.7808 67.239 26.6328C67.3608 26.4143 67.4951 26.203 67.641 25.9998C67.79 25.8008 67.969 25.5118 68.043 25.3638C68.118 25.2148 68.207 25.0668 68.243 25.0278C68.333 24.9338 69.559 22.9998 69.637 22.8278C69.672 22.7498 69.872 22.4488 70.079 22.1528C70.286 21.8598 70.454 21.5858 70.454 21.5468C70.454 21.5078 70.544 21.3598 70.657 21.2108C70.937 20.8438 71.254 20.3358 71.254 20.2538C71.254 20.2188 71.286 20.1638 71.321 20.1338C71.391 20.0778 71.832 19.4028 72.258 18.6958C72.383 18.4888 72.548 18.2388 72.622 18.1488C72.696 18.0548 72.825 17.8478 72.907 17.6918C72.9925 17.5216 73.0929 17.3593 73.207 17.2068C73.289 17.0968 73.469 16.8208 73.602 16.5938C73.731 16.3638 73.962 15.9998 74.106 15.7808C74.254 15.5628 74.556 15.0938 74.774 14.7378C74.993 14.3868 75.192 14.0938 75.215 14.0938C75.235 14.0938 75.255 14.0628 75.255 14.0198C75.255 13.9378 75.598 13.3948 75.879 13.0308C75.973 12.9028 76.055 12.7698 76.055 12.7268C76.055 12.6868 76.235 12.3988 76.454 12.0868C76.673 11.7748 76.852 11.4878 76.852 11.4488C76.852 11.4098 76.926 11.2848 77.012 11.1718C77.102 11.0588 77.282 10.7888 77.411 10.5738C77.691 10.1168 77.637 10.2038 78.11 9.46478C78.313 9.14478 78.59 8.69878 78.72 8.48078C78.852 8.26078 78.977 8.07778 79 8.07778C79.02 8.07778 79.149 7.86278 79.286 7.60578C79.418 7.34778 79.559 7.11678 79.594 7.08978C79.692 7.01178 80.055 6.43378 80.055 6.35178C80.055 6.30878 80.098 6.23778 80.149 6.19178C80.204 6.14078 80.52 5.66778 80.852 5.13278C81.184 4.59778 81.5 4.12478 81.555 4.07378C81.61 4.02778 81.653 3.95678 81.653 3.91378C81.653 3.83178 81.95 3.35978 82.254 2.96078C82.364 2.81678 82.454 2.66378 82.454 2.62078C82.454 2.57778 82.602 2.33578 82.782 2.08178C82.929 1.87902 83.0658 1.66909 83.192 1.45278C83.239 1.36278 83.399 1.10578 83.547 0.886781C83.696 0.663781 83.872 0.386781 83.937 0.265781L84.063 0.0507812L54.629 0.0547813C26.578 0.0627813 25.172 0.0697813 24.64 0.183781" fill="#8C0BFB"/>
<path fill-rule="evenodd" clip-rule="evenodd" d="M44.3438 63.9482C44.3438 82.7452 44.3517 90.4252 44.3597 81.0142C44.3677 71.6032 44.3667 56.2252 44.3597 46.8382C44.3517 37.4552 44.3438 45.1542 44.3438 63.9472V63.9482ZM67.8237 29.8532C67.8897 29.8692 67.9998 29.8692 68.0658 29.8532C68.1318 29.8372 68.0777 29.8262 67.9457 29.8262C67.8117 29.8262 67.7577 29.8372 67.8237 29.8532ZM79.8397 35.9822C79.8397 35.9942 79.9177 36.0922 80.0117 36.1972L80.1878 36.3962L80.0277 36.1772C79.8827 35.9742 79.8397 35.9272 79.8397 35.9822ZM53.2617 38.7522C53.2387 38.7982 57.3907 38.7982 62.9337 38.7522C64.0897 38.7402 62.3937 38.7282 59.1637 38.7162C55.9297 38.7082 53.2737 38.7242 53.2617 38.7512V38.7522ZM65.8237 38.8142C65.8787 38.8342 65.9607 38.8342 66.0117 38.8142C66.0617 38.7982 66.0227 38.7832 65.9177 38.7832C65.8157 38.7832 65.7727 38.7982 65.8237 38.8132V38.8142ZM72.2657 41.8802C72.4257 42.0802 72.5657 42.2472 72.5817 42.2472C72.5977 42.2472 72.4757 42.0802 72.3197 41.8802C72.2229 41.7498 72.1173 41.6262 72.0037 41.5102C71.9877 41.5102 72.1047 41.6772 72.2657 41.8802ZM83.1097 46.8262C83.1097 47.0482 83.1168 47.1302 83.1328 47.0092C83.1448 46.8892 83.1447 46.7092 83.1287 46.6072C83.1167 46.5092 83.1087 46.6072 83.1087 46.8262H83.1097ZM74.1987 47.6622C74.1987 47.8302 74.2107 47.8962 74.2227 47.8142C74.2344 47.7145 74.2344 47.6138 74.2227 47.5142C74.2107 47.4312 74.1987 47.4972 74.1987 47.6622ZM83.0508 48.1972C83.0508 48.3262 83.0627 48.3802 83.0737 48.3142C83.0893 48.2369 83.0893 48.1574 83.0737 48.0802C83.0627 48.0172 83.0508 48.0682 83.0508 48.1972ZM74.1987 49.0672C74.1987 49.2322 74.2107 49.3022 74.2227 49.2172C74.2346 49.1169 74.2346 49.0155 74.2227 48.9152C74.2107 48.8332 74.1987 48.9042 74.1987 49.0682V49.0672ZM78.9017 58.3802L78.7458 58.5992L78.9177 58.3992C79.0817 58.2162 79.1177 58.1622 79.0737 58.1622C79.0657 58.1622 78.9877 58.2592 78.9017 58.3802ZM65.0778 58.6102C65.1394 58.6259 65.2041 58.6259 65.2657 58.6102C65.3157 58.5912 65.2737 58.5802 65.1717 58.5802C65.0697 58.5802 65.0278 58.5912 65.0778 58.6102ZM64.4137 58.6772C64.4926 58.6929 64.5739 58.6929 64.6527 58.6772C64.7187 58.6622 64.6637 58.6502 64.5317 58.6502C64.3997 58.6502 64.3477 58.6622 64.4137 58.6772ZM55.8557 58.7472C57.3157 58.7592 59.6957 58.7592 61.1367 58.7472C62.5777 58.7402 61.3827 58.7272 58.4807 58.7272C55.5747 58.7272 54.3947 58.7402 55.8557 58.7472ZM82.1058 67.0572C82.3088 67.3142 82.4887 67.5252 82.5037 67.5252C82.5157 67.5252 82.3638 67.3142 82.1598 67.0562C81.9568 66.7982 81.7777 66.5872 81.7617 66.5872C81.7458 66.5872 81.9018 66.7982 82.1058 67.0572ZM65.5857 67.1732C65.6827 67.1892 65.8277 67.1892 65.9057 67.1732C65.9877 67.1582 65.9097 67.1462 65.7337 67.1462C65.5537 67.1462 65.4917 67.1582 65.5857 67.1732ZM66.5737 67.2362C66.6237 67.2562 66.7068 67.2562 66.7578 67.2362C66.8078 67.2202 66.7687 67.2052 66.6637 67.2052C66.5618 67.2052 66.5187 67.2202 66.5737 67.2352V67.2362ZM74.6137 70.9042C74.8007 71.1422 74.9688 71.3372 74.9837 71.3372C74.9957 71.3372 74.8547 71.1422 74.6637 70.9042C74.5505 70.7508 74.4279 70.6045 74.2967 70.4662C74.2807 70.4662 74.4217 70.6622 74.6127 70.9042H74.6137ZM76.7647 78.0912C76.7647 78.5132 76.7728 78.6892 76.7848 78.4742C76.7965 78.219 76.7965 77.9634 76.7848 77.7082C76.7728 77.4982 76.7647 77.6692 76.7647 78.0912ZM85.8278 77.9232C85.8278 78.1462 85.8397 78.2282 85.8507 78.1072C85.8627 77.9862 85.8627 77.8072 85.8507 77.7052C85.8397 77.6072 85.8278 77.7052 85.8278 77.9232ZM85.8278 79.6622C85.8278 79.8842 85.8397 79.9662 85.8507 79.8452C85.8627 79.7252 85.8627 79.5452 85.8507 79.4432C85.8397 79.3452 85.8278 79.4432 85.8278 79.6622ZM74.5817 85.4662L74.3197 85.8142L74.5977 85.4862C74.7537 85.3022 74.8777 85.1422 74.8777 85.1342C74.8777 85.0842 74.8277 85.1382 74.5817 85.4662ZM84.2497 87.5562C84.1997 87.6852 84.1717 87.7902 84.1837 87.7902C84.2227 87.7902 84.3827 87.3802 84.3587 87.3502C84.3477 87.3332 84.2967 87.4272 84.2487 87.5562H84.2497ZM66.0387 89.1732C66.1208 89.1892 66.2487 89.1892 66.3317 89.1732C66.4147 89.1572 66.3467 89.1462 66.1867 89.1462C66.0227 89.1462 65.9567 89.1582 66.0387 89.1732ZM81.8907 91.6852L81.6797 91.9662L81.9067 91.7052C82.1167 91.4582 82.1567 91.4002 82.1167 91.4002C82.1097 91.4002 82.0037 91.5292 81.8907 91.6852ZM68.7578 98.0682C68.8191 98.0838 68.8834 98.0838 68.9447 98.0682C68.9957 98.0482 68.9527 98.0372 68.8517 98.0372C68.7497 98.0372 68.7068 98.0482 68.7578 98.0672V98.0682ZM67.1598 98.1382C67.3318 98.1502 67.5938 98.1502 67.7458 98.1382C67.9018 98.1222 67.7618 98.1112 67.4378 98.1112C67.1178 98.1112 66.9918 98.1222 67.1598 98.1382Z" fill="#A86BEE"/>
<path fill-rule="evenodd" clip-rule="evenodd" d="M50.0138 29.7933C53.1308 29.8013 58.2328 29.8013 61.3498 29.7933C64.4628 29.7853 61.9158 29.7773 55.6818 29.7773C49.4478 29.7773 46.8968 29.7853 50.0138 29.7933ZM79.5488 35.5633C79.6938 35.7463 79.8218 35.8953 79.8388 35.8953C79.8538 35.8953 79.7438 35.7463 79.5988 35.5633C79.4538 35.3803 79.3258 35.2273 79.3108 35.2273C79.2988 35.2273 79.4038 35.3793 79.5488 35.5633ZM65.1898 38.8203C65.2998 38.8363 65.4798 38.8363 65.5878 38.8203C65.6978 38.8053 65.6078 38.7933 65.3888 38.7933C65.1698 38.7933 65.0768 38.8053 65.1898 38.8203ZM53.2558 48.7703C53.2558 54.2503 53.2598 56.4803 53.2678 53.7303C53.2756 50.409 53.2756 47.0877 53.2678 43.7663C53.2598 41.0363 53.2558 43.2893 53.2558 48.7703ZM83.1078 47.4303C83.1078 47.5783 83.1198 47.6293 83.1308 47.5473C83.1465 47.4594 83.1465 47.3693 83.1308 47.2813C83.1198 47.2153 83.1078 47.2853 83.1078 47.4303ZM74.2058 48.3673C74.2058 48.6253 74.2168 48.7233 74.2288 48.5823C74.2385 48.4275 74.2385 48.2722 74.2288 48.1173C74.2138 47.9973 74.2058 48.1093 74.2058 48.3673ZM72.1078 55.1213C71.9788 55.2893 71.8848 55.4213 71.9008 55.4213C71.9128 55.4213 72.0338 55.2893 72.1628 55.1213C72.2918 54.9573 72.3848 54.8213 72.3698 54.8213C72.2741 54.9138 72.1865 55.0141 72.1078 55.1213ZM53.2558 78.1613V89.1613L59.5878 89.1643H65.9198L59.5998 89.1443L53.2828 89.1293L53.2678 78.1453L53.2558 67.1613V78.1613ZM65.1618 67.1773C65.2329 67.1916 65.3062 67.1903 65.3768 67.1733C65.4268 67.1573 65.3728 67.1463 65.2558 67.1463C65.1388 67.1463 65.0958 67.1573 65.1618 67.1763V67.1773ZM81.4898 92.1903L81.3058 92.4403L81.5088 92.2103C81.6928 91.9953 81.7318 91.9403 81.6928 91.9403C81.6178 92.0174 81.5498 92.1011 81.4898 92.1903Z" fill="#9C3CF4"/>
</g>
<defs>
<clipPath id="clip0">
<rect width="128" height="128" fill="white"/>
</clipPath>
</defs>
</svg>
