<svg width="128" height="128" viewBox="0 0 128 128" fill="none" xmlns="http://www.w3.org/2000/svg">
<path d="M18.8157 114.123L8.76172 1.35156H119.242L109.178 114.106L63.9347 126.649L18.8157 114.123Z" fill="#1572B6"/>
<path d="M64 117.062L100.559 106.926L109.16 10.5723H64V117.062Z" fill="#33A9DC"/>
<path d="M64 51.4295H82.302L83.566 37.2665H64V23.4355H98.682L98.35 27.1465L94.95 65.2606H64V51.4295Z" fill="white"/>
<path d="M64.0849 87.3497L64.0239 87.3677L48.6209 83.2087L47.6359 72.1777H33.7539L35.6909 93.8947L64.0219 101.758L64.0849 101.74V87.3497Z" fill="#EBEBEB"/>
<path d="M81.1272 64.6758L79.4612 83.1978L64.0352 87.3618V101.752L92.3892 93.8938L92.5972 91.5568L95.0032 64.6758H81.1272Z" fill="white"/>
<path d="M64.0483 23.4355V37.2665H30.6403L30.3633 34.1585L29.7333 27.1465L29.4023 23.4355H64.0483ZM64.0013 51.4315V65.2626H48.7923L48.5153 62.1545L47.8843 55.1425L47.5543 51.4315H64.0013Z" fill="#EBEBEB"/>
</svg>
