<svg width="128" height="128" viewBox="0 0 128 128" fill="none" xmlns="http://www.w3.org/2000/svg">
<path fill-rule="evenodd" clip-rule="evenodd" d="M73.7989 50.8008H85.0989V62.3008H90.7989C93.3989 62.3008 96.0989 61.8008 98.5989 61.0008C99.7989 60.6008 101.199 60.0008 102.399 59.3008C100.799 57.2008 99.9989 54.6008 99.7989 52.0008C99.4989 48.5008 100.199 43.9008 102.599 41.2008L103.799 39.8008L105.199 40.9008C108.799 43.8008 111.699 47.7008 112.299 52.3008C116.599 51.0008 121.599 51.3008 125.399 53.5008L126.899 54.4008L126.099 56.0008C122.899 62.2008 116.199 64.2008 109.699 63.8008C99.8989 88.1008 78.6989 99.6008 52.8989 99.6008C39.5989 99.6008 27.3989 94.6008 20.3989 82.8008L20.2989 82.6008L19.2989 80.5008C16.8989 75.3008 16.1989 69.6008 16.6989 63.9008L16.8989 62.2008H26.4989V50.8008H37.7989V39.6008H60.2989V28.3008H73.7989V50.8008Z" fill="#3A4D54"/>
<path d="M110.402 55.1004C111.202 49.2004 106.802 44.6004 104.002 42.4004C100.902 46.0004 100.402 55.6004 105.302 59.6004C102.502 62.0004 96.8019 64.3004 90.8019 64.3004H18.6019C18.0019 70.5004 19.1019 76.2004 21.6019 81.1004L22.4019 82.6004C22.9019 83.5004 23.5019 84.3004 24.1019 85.2004C27.1019 85.4004 29.8019 85.5004 32.3019 85.4004C37.2019 85.3004 41.2019 84.7004 44.3019 83.7004C44.8019 83.5004 45.2019 83.8004 45.4019 84.2004C45.6019 84.7004 45.3019 85.1004 44.9019 85.3004C44.5019 85.4004 44.1019 85.6004 43.6019 85.7004C41.2019 86.4004 38.6019 86.8004 35.3019 87.0004H34.7019C33.4019 87.1004 32.0019 87.1004 30.5019 87.1004C28.9019 87.1004 27.4019 87.1004 25.6019 87.0004C31.6019 93.8004 41.0019 97.8004 52.8019 97.8004C77.8019 97.8004 99.0019 86.7004 108.302 61.9004C115.002 62.6004 121.402 60.9004 124.302 55.2004C119.802 52.5004 113.802 53.4004 110.402 55.1004Z" fill="#00AADA"/>
<path d="M110.399 55.1004C111.199 49.2004 106.799 44.6004 103.999 42.4004C100.899 46.0004 100.399 55.6004 105.299 59.6004C102.499 62.0004 96.7991 64.3004 90.7991 64.3004H22.7991C22.4991 73.8004 25.9991 81.0004 32.2991 85.3004C37.1991 85.2004 41.1991 84.6004 44.2991 83.6004C44.7991 83.4004 45.1991 83.7004 45.3991 84.1004C45.5991 84.6004 45.2991 85.0004 44.8991 85.2004C44.4991 85.3004 44.0991 85.5004 43.5991 85.6004C41.1991 86.3004 38.3991 86.8004 35.0991 87.0004L34.9991 86.9004C43.4991 91.3004 55.7991 91.2004 69.9991 85.8004C85.7991 79.7004 100.599 68.1004 110.899 54.9004C110.699 55.0004 110.499 55.0004 110.399 55.1004Z" fill="#28B8EB"/>
<path d="M18.6992 71.8008C19.0992 75.1008 20.0992 78.2008 21.5992 81.1008L22.3992 82.6008C22.8992 83.5008 23.4992 84.3008 24.0992 85.2008C27.0992 85.4008 29.7992 85.5008 32.2992 85.4008C37.1992 85.3008 41.1992 84.7008 44.2992 83.7008C44.7992 83.5008 45.1992 83.8008 45.3992 84.2008C45.5992 84.7008 45.2992 85.1008 44.8992 85.3008C44.4992 85.4008 44.0992 85.6008 43.5992 85.7008C41.1992 86.4008 38.3992 86.9008 35.0992 87.1008H34.6992C33.3992 87.2008 31.9992 87.2008 30.5992 87.2008C28.9992 87.2008 27.3992 87.2008 25.6992 87.1008C31.6992 93.9008 41.1992 97.9008 52.9992 97.9008C74.3992 97.9008 92.9992 89.8008 103.799 71.9008H18.6992V71.8008Z" fill="#028BB8"/>
<path d="M23.5 71.8008C24.8 77.6008 27.8 82.2008 32.3 85.3008C37.2 85.2008 41.2 84.6008 44.3 83.6008C44.8 83.4008 45.2 83.7008 45.4 84.1008C45.6 84.6008 45.3 85.0008 44.9 85.2008C44.5 85.3008 44.1 85.5008 43.6 85.6008C41.2 86.3008 38.4 86.8008 35 87.0008C43.5 91.4008 55.8 91.3008 69.9 85.9008C78.4 82.6008 86.7 77.7008 94.1 71.8008H23.5Z" fill="#019BC6"/>
<path fill-rule="evenodd" clip-rule="evenodd" d="M28.3984 52.7H38.1984V62.5H28.3984V52.7ZM29.1984 53.5H29.9984V61.6H29.1984V53.5ZM30.5984 53.5H31.3984V61.6H30.5984V53.5ZM32.0984 53.5H32.8984V61.6H32.0984V53.5ZM33.5984 53.5H34.3984V61.6H33.5984V53.5ZM35.0984 53.5H35.8984V61.6H35.0984V53.5ZM36.5984 53.5H37.3984V61.6H36.5984V53.5ZM39.5984 41.5H49.3984V51.3H39.5984V41.5ZM40.4984 42.3H41.2984V50.4H40.4984V42.3ZM41.8984 42.3H42.6984V50.4H41.8984V42.3ZM43.3984 42.3H44.1984V50.4H43.3984V42.3ZM44.8984 42.3H45.6984V50.4H44.8984V42.3ZM46.2984 42.3H47.0984V50.4H46.2984V42.3ZM47.7984 42.3H48.5984V50.4H47.7984V42.3Z" fill="#00ACD3"/>
<path fill-rule="evenodd" clip-rule="evenodd" d="M39.6016 52.6992H49.4016V62.4992H39.6016V52.6992ZM40.5016 53.4992H41.3016V61.5992H40.5016V53.4992ZM41.9016 53.4992H42.7016V61.5992H41.9016V53.4992ZM43.4016 53.4992H44.2016V61.5992H43.4016V53.4992ZM44.9016 53.4992H45.7016V61.5992H44.9016V53.4992ZM46.3016 53.4992H47.1016V61.5992H46.3016V53.4992ZM47.8016 53.4992H48.6016V61.5992H47.8016V53.4992Z" fill="#23C2EE"/>
<path fill-rule="evenodd" clip-rule="evenodd" d="M50.8984 52.6992H60.6984V62.4992H50.8984V52.6992ZM51.6984 53.4992H52.4984V61.5992H51.6984V53.4992ZM53.1984 53.4992H53.9984V61.5992H53.1984V53.4992ZM54.6984 53.4992H55.4984V61.5992H54.6984V53.4992ZM56.0984 53.4992H56.8984V61.5992H56.0984V53.4992ZM57.5984 53.4992H58.3984V61.5992H57.5984V53.4992ZM59.0984 53.4992H59.8984V61.5992H59.0984V53.4992Z" fill="#00ACD3"/>
<path fill-rule="evenodd" clip-rule="evenodd" d="M50.8984 41.5H60.6984V51.3H50.8984V41.5ZM51.6984 42.3H52.4984V50.4H51.6984V42.3ZM53.1984 42.3H53.9984V50.4H53.1984V42.3ZM54.6984 42.3H55.4984V50.4H54.6984V42.3ZM56.0984 42.3H56.8984V50.4H56.0984V42.3ZM57.5984 42.3H58.3984V50.4H57.5984V42.3ZM59.0984 42.3H59.8984V50.4H59.0984V42.3ZM62.1984 52.7H71.9984V62.5H62.1984V52.7ZM62.9984 53.5H63.7984V61.6H62.9984V53.5ZM64.4984 53.5H65.2984V61.6H64.4984V53.5ZM65.8984 53.5H66.6984V61.6H65.8984V53.5ZM67.3984 53.5H68.1984V61.6H67.3984V53.5ZM68.8984 53.5H69.6984V61.6H68.8984V53.5ZM70.3984 53.5H71.1984V61.6H70.3984V53.5Z" fill="#23C2EE"/>
<path fill-rule="evenodd" clip-rule="evenodd" d="M62.1992 41.5H71.9992V51.3H62.1992V41.5ZM62.9992 42.3H63.7992V50.4H62.9992V42.3ZM64.4992 42.3H65.2992V50.4H64.4992V42.3ZM65.8992 42.3H66.6992V50.4H65.8992V42.3ZM67.3992 42.3H68.1992V50.4H67.3992V42.3ZM68.8992 42.3H69.6992V50.4H68.8992V42.3ZM70.3992 42.3H71.1992V50.4H70.3992V42.3Z" fill="#00ACD3"/>
<path fill-rule="evenodd" clip-rule="evenodd" d="M62.1992 30.1992H71.9992V39.9992H62.1992V30.1992ZM62.9992 30.9992H63.7992V39.0992H62.9992V30.9992ZM64.4992 30.9992H65.2992V39.0992H64.4992V30.9992ZM65.8992 30.9992H66.6992V39.0992H65.8992V30.9992ZM67.3992 30.9992H68.1992V39.0992H67.3992V30.9992ZM68.8992 30.9992H69.6992V39.0992H68.8992V30.9992ZM70.3992 30.9992H71.1992V39.0992H70.3992V30.9992Z" fill="#23C2EE"/>
<path fill-rule="evenodd" clip-rule="evenodd" d="M73.5 52.6992H83.3V62.4992H73.5V52.6992ZM74.3 53.4992H75.1V61.5992H74.3V53.4992ZM75.7 53.4992H76.5V61.5992H75.7V53.4992ZM77.2 53.4992H78V61.5992H77.2V53.4992ZM78.7 53.4992H79.5V61.5992H78.7V53.4992ZM80.2 53.4992H81V61.5992H80.2V53.4992ZM81.7 53.4992H82.5V61.5992H81.7V53.4992Z" fill="#00ACD3"/>
<path fill-rule="evenodd" clip-rule="evenodd" d="M48.8016 78.3008C50.3016 78.3008 51.5016 79.5008 51.5016 81.0008C51.5016 82.5008 50.3016 83.7008 48.8016 83.7008C47.3016 83.7008 46.1016 82.5008 46.1016 81.0008C46.1016 79.5008 47.3016 78.3008 48.8016 78.3008Z" fill="#D4EEF1"/>
<path fill-rule="evenodd" clip-rule="evenodd" d="M48.8016 79.0996C49.0016 79.0996 49.3016 79.0996 49.5016 79.1996C49.3016 79.2996 49.1016 79.5996 49.1016 79.8996C49.1016 80.2996 49.5016 80.6996 49.9016 80.6996C50.2016 80.6996 50.5016 80.4996 50.6016 80.2996C50.7016 80.4996 50.7016 80.7996 50.7016 80.9996C50.7016 82.0996 49.8016 82.8996 48.8016 82.8996C47.7016 82.8996 46.9016 81.9996 46.9016 80.9996C46.9016 79.9996 47.7016 79.0996 48.8016 79.0996ZM1.10156 72.7996H126.502C123.802 72.0996 117.902 71.1996 118.802 67.5996C113.802 73.2996 101.902 71.5996 98.8016 68.7996C95.4016 73.6996 75.8016 71.7996 74.5016 67.9996C70.3016 72.9996 57.2016 72.9996 53.0016 67.9996C51.6016 71.7996 32.0016 73.6996 28.7016 68.7996C25.7016 71.5996 13.7016 73.2996 8.70156 67.5996C9.80156 71.0996 3.80156 72.0996 1.10156 72.7996Z" fill="#3A4D54"/>
<path d="M55.9984 97.7996C49.2984 94.5996 45.6984 90.2996 43.5984 85.5996C41.0984 86.2996 38.0984 86.7996 34.6984 86.9996C33.3984 87.0996 31.9984 87.0996 30.5984 87.0996C28.8984 87.0996 27.1984 87.0996 25.3984 86.9996C31.3984 92.9996 38.9984 97.6996 52.8984 97.7996H55.9984Z" fill="#BFDBE0"/>
<path d="M46.0992 89.8996C45.1992 88.5996 44.2992 87.0996 43.5992 85.5996C41.0992 86.2996 38.0992 86.7996 34.6992 86.9996C36.9992 88.1996 40.3992 89.3996 46.0992 89.8996Z" fill="#D4EEF1"/>
</svg>
