<svg width="128" height="128" viewBox="0 0 128 128" fill="none" xmlns="http://www.w3.org/2000/svg">
<path d="M1.40625 1.4082H126.59V126.593H1.40625V1.4082Z" fill="#F0DB4F"/>
<path d="M116.346 96.7369C115.429 91.0259 111.705 86.2288 100.674 81.7558C96.8416 79.9948 92.5696 78.7339 91.2966 75.8299C90.8446 74.1399 90.7846 73.1879 91.0706 72.1649C91.8916 68.8449 95.8546 67.8099 98.9956 68.7619C101.019 69.4399 102.934 70.9989 104.089 73.4859C109.491 69.9879 109.48 70.0109 113.252 67.6069C111.871 65.4659 111.134 64.4779 110.23 63.5619C106.981 59.9329 102.554 58.0639 95.4736 58.2069L91.7856 58.6839C88.2516 59.5769 84.8836 61.4319 82.9086 63.9189C76.9826 70.6429 78.6726 82.4108 85.8836 87.2538C92.9876 92.5858 103.424 93.7988 104.757 98.7848C106.054 104.889 100.271 106.865 94.5226 106.163C90.2866 105.282 87.9306 103.129 85.3836 99.2138C80.6956 101.927 80.6956 101.927 75.8756 104.699C77.0186 107.198 78.2196 108.329 80.1356 110.494C89.2036 119.692 111.896 119.24 115.966 105.318C116.131 104.84 117.227 101.652 116.346 96.7369ZM69.4606 58.9439H57.7516L57.7036 89.2158C57.7036 95.6538 58.0366 101.556 56.9896 103.365C55.2766 106.923 50.8376 106.482 48.8146 105.792C46.7556 104.78 45.7086 103.341 44.4956 101.307C44.1626 100.723 43.9126 100.271 43.8286 100.236L34.3086 106.066C35.8916 109.315 38.2236 112.135 41.2106 113.967C45.6726 116.645 51.6696 117.466 57.9416 116.026C62.0236 114.837 65.5456 112.374 67.3896 108.625C70.0556 103.71 69.4836 97.7608 69.4596 91.1809C69.5196 80.4459 69.4606 69.7129 69.4606 58.9439Z" fill="#323330"/>
</svg>
