<svg width="128" height="128" viewBox="0 0 128 128" fill="none" xmlns="http://www.w3.org/2000/svg">
<path fill-rule="evenodd" clip-rule="evenodd" d="M88.0392 42.8125C89.6442 47.4555 90.8002 52.1955 91.1802 57.1085C91.6522 63.2035 91.4362 69.2555 90.1512 75.2505C90.1162 75.4155 90.0422 75.5705 89.9872 75.7305C89.5842 75.7315 89.1732 75.6815 88.7792 75.7425C85.4502 76.2655 82.1242 76.8075 78.7982 77.3465C75.3602 77.9035 71.9172 78.4385 68.4852 79.0335C67.2692 79.2435 65.7642 78.9925 65.2732 80.6745C65.2592 80.7205 65.1192 80.7285 65.0382 80.7545L65.2042 70.7035L65.0352 46.4515L66.6372 46.1765C69.2572 45.7475 71.8772 45.3125 74.4992 44.8955C77.6282 44.3985 80.7602 43.9155 83.8912 43.4305C85.2722 43.2155 86.6552 43.0185 88.0392 42.8125Z" fill="#439934"/>
<path fill-rule="evenodd" clip-rule="evenodd" d="M61.7307 110.054C60.0407 108.601 58.2917 107.212 56.6717 105.684C47.9547 97.4624 41.5787 87.7854 38.4387 76.1184C37.5737 72.9074 36.9967 69.6444 36.8117 66.3264C36.6817 64.0044 36.4937 61.6614 36.6577 59.3514C37.0947 53.2074 37.9827 47.1224 39.7847 41.2044L39.8837 41.0664C40.0587 41.2994 40.3107 41.5054 40.3997 41.7684C42.1587 46.9484 43.9047 52.1324 45.6417 57.3194C51.0997 73.6194 56.5507 89.9234 62.0177 106.219C62.1247 106.537 62.4017 106.798 62.6007 107.085L61.7307 110.054Z" fill="#45A538"/>
<path fill-rule="evenodd" clip-rule="evenodd" d="M88.037 42.8114C86.653 43.0174 85.269 43.2144 83.888 43.4274C80.757 43.9124 77.625 44.3954 74.496 44.8924C71.874 45.3094 69.254 45.7444 66.634 46.1734L65.032 46.4484L65.02 45.4034C64.967 44.5444 64.876 43.6864 64.866 42.8274C64.797 37.3494 64.754 31.8714 64.686 26.3934C64.644 22.9644 64.581 19.5364 64.511 16.1084C64.468 13.9784 64.422 11.8474 64.326 9.72036C64.274 8.57736 64.09 7.44036 64.015 6.29736C63.973 5.64036 64.031 4.97836 64.044 4.31836C64.861 5.90136 65.66 7.49636 66.5 9.06736C67.827 11.5514 69.941 13.3814 71.844 15.3784C79.367 23.2704 84.708 32.4464 88.037 42.8114Z" fill="#46A037"/>
<path fill-rule="evenodd" clip-rule="evenodd" d="M65.0374 80.7537C65.1184 80.7277 65.2594 80.7197 65.2724 80.6737C65.7634 78.9917 67.2684 79.2427 68.4844 79.0327C71.9164 78.4387 75.3594 77.9027 78.7974 77.3457C82.1234 76.8067 85.4494 76.2647 88.7784 75.7417C89.1724 75.6797 89.5834 75.7307 89.9864 75.7297C89.3644 77.9497 88.8744 80.2177 88.0854 82.3767C87.1894 84.8257 86.1054 87.2157 84.9544 89.5587C83.2313 93.0534 81.0986 96.3308 78.6014 99.3217C76.6824 101.63 74.5434 103.763 72.3994 105.87C71.2144 107.035 69.8174 107.984 68.5174 109.031L68.1804 108.801L66.9664 107.763L65.7104 105.01C64.8525 101.798 64.3844 98.4951 64.3164 95.1717L64.3394 94.6107L64.5104 92.1847C64.5674 91.3567 64.6434 90.5297 64.6784 89.6997C64.8074 86.7177 64.9194 83.7357 65.0374 80.7537Z" fill="#409433"/>
<path fill-rule="evenodd" clip-rule="evenodd" d="M65.0343 80.7536C64.9163 83.7356 64.8043 86.7176 64.6773 89.7006C64.6423 90.5306 64.5663 91.3576 64.5093 92.1856L63.7443 92.4746C62.0453 87.4726 60.3453 82.5236 58.6823 77.5616C55.9323 69.3526 53.2153 61.1306 50.4693 52.9196C48.2514 46.2921 46.0181 39.6697 43.7693 33.0526C43.6643 32.7426 43.3623 32.5006 43.1523 32.2266L48.0483 23.2246C48.2163 23.5166 48.4383 23.7896 48.5443 24.1036C50.8119 30.8057 53.0679 37.5117 55.3123 44.2216C58.2283 52.9516 61.1263 61.6886 64.0403 70.4196C64.1563 70.7686 64.3483 71.0906 64.5313 71.4816L65.2013 70.7016L65.0343 80.7536Z" fill="#4FAA41"/>
<path fill-rule="evenodd" clip-rule="evenodd" d="M43.1548 32.2266C43.3648 32.5006 43.6658 32.7426 43.7718 33.0526C46.0206 39.6697 48.2539 46.292 50.4718 52.9196C53.2178 61.1306 55.9348 69.3526 58.6848 77.5616C60.3468 82.5226 62.0468 87.4726 63.7468 92.4746L64.5118 92.1856L64.3408 94.6116L64.1858 95.1706C63.9198 97.8266 63.6958 100.489 63.3718 103.139C63.2088 104.467 62.8628 105.771 62.5998 107.086C62.4018 106.799 62.1238 106.538 62.0168 106.22C56.5498 89.9226 51.0988 73.6196 45.6408 57.3196C43.9044 52.1322 42.1571 46.9485 40.3988 41.7686C40.3098 41.5056 40.0588 41.2996 39.8828 41.0666L43.1548 32.2266Z" fill="#4AA73C"/>
<path fill-rule="evenodd" clip-rule="evenodd" d="M65.2038 70.7018L64.5338 71.4818C64.3508 71.0908 64.1588 70.7678 64.0428 70.4198C61.1298 61.6888 58.2308 52.9518 55.3148 44.2218C53.0703 37.5119 50.8143 30.8059 48.5468 24.1038C48.4418 23.7898 48.2198 23.5158 48.0508 23.2248L54.1058 15.2598C54.2968 15.5148 54.5688 15.7418 54.6678 16.0288C56.3488 20.9498 58.0148 25.8768 59.6708 30.8068C61.2178 35.4108 62.7418 40.0218 64.3068 44.6198C64.4118 44.9278 64.7768 45.1458 65.0208 45.4058L65.0328 46.4508C65.0908 54.5328 65.1478 62.6178 65.2038 70.7018Z" fill="#57AE47"/>
<path fill-rule="evenodd" clip-rule="evenodd" d="M65.0205 45.4037C64.7765 45.1437 64.4115 44.9257 64.3065 44.6177C62.7415 40.0197 61.2175 35.4087 59.6705 30.8047C58.0145 25.8747 56.3485 20.9487 54.6675 16.0267C54.5685 15.7397 54.2965 15.5127 54.1055 15.2577C56.0745 13.3297 57.9825 11.3327 60.0305 9.49372C61.8515 7.85972 63.3155 6.10772 63.3825 3.52572C63.3855 3.41872 63.4415 3.31172 63.5275 3.01172L64.0465 4.31772C64.0335 4.97872 63.9745 5.63972 64.0175 6.29672C64.0925 7.43972 64.2765 8.57672 64.3285 9.71972C64.4245 11.8467 64.4705 13.9777 64.5135 16.1077C64.5825 19.5357 64.6455 22.9637 64.6885 26.3927C64.7555 31.8707 64.7995 37.3487 64.8685 42.8267C64.8765 43.6877 64.9665 44.5447 65.0205 45.4037Z" fill="#60B24F"/>
<path fill-rule="evenodd" clip-rule="evenodd" d="M62.5966 107.085C62.8596 105.77 63.2056 104.465 63.3686 103.138C63.6936 100.489 63.9166 97.8262 64.1826 95.1702L64.2486 95.1602L64.3146 95.1712C64.3826 98.4946 64.8506 101.798 65.7086 105.009C65.5326 105.241 65.2836 105.448 65.1906 105.71C64.4636 107.76 63.7786 109.826 63.0476 111.876C62.9476 112.156 62.6696 112.374 62.4736 112.62L61.7266 110.054L62.5966 107.085Z" fill="#A9AA88"/>
<path fill-rule="evenodd" clip-rule="evenodd" d="M62.4766 112.621C62.6726 112.375 62.9516 112.157 63.0506 111.877C63.7816 109.827 64.4676 107.762 65.1936 105.711C65.2866 105.449 65.5346 105.242 65.7116 105.01L66.9666 107.764C66.7186 108.116 66.3766 108.433 66.2386 108.825L63.8346 115.884C63.7356 116.167 63.3976 116.367 63.1716 116.606L62.4766 112.621Z" fill="#B6B598"/>
<path fill-rule="evenodd" clip-rule="evenodd" d="M63.1719 116.606C63.3989 116.368 63.7359 116.167 63.8349 115.884L66.2389 108.825C66.3759 108.434 66.7189 108.116 66.9669 107.764L68.1819 108.801C67.5949 109.381 67.2689 110.051 67.4649 110.898L67.0959 112.106C66.9279 112.313 66.6849 112.493 66.6019 112.73C65.7629 115.133 64.9619 117.549 64.1169 119.952C64.0099 120.257 63.7129 120.496 63.5029 120.764C63.3939 119.377 63.2829 117.993 63.1719 116.606Z" fill="#C2C1A7"/>
<path fill-rule="evenodd" clip-rule="evenodd" d="M63.5028 120.763C63.7118 120.494 64.0088 120.255 64.1168 119.951C64.9618 117.549 65.7628 115.133 66.6018 112.729C66.6848 112.493 66.9268 112.312 67.0958 112.105L66.5868 117.65C66.4508 117.807 66.2538 117.944 66.1888 118.127C65.6138 119.741 65.0718 121.367 64.4948 122.981C64.3758 123.314 64.1478 123.608 63.9698 123.919C63.8118 123.712 63.5288 123.512 63.5158 123.296C63.4648 122.455 63.4998 121.608 63.5028 120.763Z" fill="#CECDB7"/>
<path fill-rule="evenodd" clip-rule="evenodd" d="M63.9688 123.919C64.1468 123.607 64.3748 123.313 64.4938 122.981C65.0718 121.368 65.6128 119.742 66.1878 118.127C66.2528 117.944 66.4507 117.808 66.5857 117.65L66.5977 121.29L65.3797 124.414L63.9688 123.919Z" fill="#DBDAC7"/>
<path fill-rule="evenodd" clip-rule="evenodd" d="M65.3789 124.415L66.5969 121.291L66.8479 124.987L65.3789 124.415Z" fill="#EBE9DC"/>
<path fill-rule="evenodd" clip-rule="evenodd" d="M67.4634 110.898C67.2674 110.051 67.5924 109.38 68.1804 108.801L68.5174 109.031L67.4634 110.898Z" fill="#CECDB7"/>
<path fill-rule="evenodd" clip-rule="evenodd" d="M64.3156 95.1713L64.2496 95.1603L64.1836 95.1703L64.3386 94.6113L64.3156 95.1713Z" fill="#4FAA41"/>
</svg>
