<svg width="128" height="128" viewBox="0 0 128 128" fill="none" xmlns="http://www.w3.org/2000/svg">
<path d="M63.9977 75.3996C70.2937 75.3996 75.3977 70.2957 75.3977 63.9996C75.3977 57.7036 70.2937 52.5996 63.9977 52.5996C57.7016 52.5996 52.5977 57.7036 52.5977 63.9996C52.5977 70.2957 57.7016 75.3996 63.9977 75.3996Z" fill="#61DAFB"/>
<path d="M107.298 45.1996C105.098 44.3996 102.798 43.5996 100.398 42.8996C100.998 40.4996 101.498 38.0996 101.898 35.7996C103.998 22.5996 101.698 13.2996 95.2984 9.69961C93.3984 8.59961 91.2984 8.09961 88.8984 8.09961C81.8984 8.09961 72.9984 13.2996 63.9984 21.9996C54.9984 13.2996 46.0984 8.09961 39.0984 8.09961C36.6984 8.09961 34.5984 8.59961 32.6984 9.69961C26.2984 13.3996 23.9984 22.6996 26.0984 35.7996C26.4984 38.0996 26.9984 40.4996 27.5984 42.8996C25.1984 43.5996 22.8984 44.2996 20.6984 45.1996C8.19844 49.9996 1.39844 56.5996 1.39844 63.9996C1.39844 71.3996 8.29844 77.9996 20.6984 82.7996C22.8984 83.5996 25.1984 84.3996 27.5984 85.0996C26.9984 87.4996 26.4984 89.8996 26.0984 92.1996C23.9984 105.4 26.2984 114.7 32.6984 118.3C34.5984 119.4 36.6984 119.9 39.0984 119.9C46.1984 119.9 55.0984 114.7 63.9984 106C72.9984 114.7 81.8984 119.9 88.8984 119.9C91.2984 119.9 93.3984 119.4 95.2984 118.3C101.698 114.6 103.998 105.3 101.898 92.1996C101.498 89.8996 100.998 87.4996 100.398 85.0996C102.798 84.3996 105.098 83.6996 107.298 82.7996C119.798 77.9996 126.598 71.3996 126.598 63.9996C126.598 56.5996 119.798 49.9996 107.298 45.1996ZM92.4984 14.6996C96.5984 17.0996 97.9984 24.4996 96.2984 34.9996C95.9984 37.0996 95.4984 39.2996 94.8984 41.5996C89.6984 40.3996 84.1984 39.5996 78.3984 39.0996C74.9984 34.2996 71.4984 29.9996 67.9984 26.0996C75.3984 18.7996 82.8984 13.7996 88.9984 13.7996C90.2984 13.7996 91.4984 14.0996 92.4984 14.6996ZM81.2984 73.9996C79.4984 77.1996 77.3984 80.3996 75.1984 83.5996C71.4984 83.8996 67.7984 83.9996 63.9984 83.9996C60.0984 83.9996 56.3984 83.8996 52.7984 83.5996C50.5984 80.3996 48.5984 77.1996 46.7984 73.9996C44.8984 70.6996 43.0984 67.2996 41.4984 63.9996C43.0984 60.6996 44.8984 57.2996 46.7984 53.9996C48.5984 50.7996 50.6984 47.5996 52.8984 44.3996C56.5984 44.0996 60.2984 43.9996 64.0984 43.9996C67.9984 43.9996 71.6984 44.0996 75.2984 44.3996C77.4984 47.5996 79.4984 50.7996 81.2984 53.9996C83.1984 57.2996 84.9984 60.6996 86.5984 63.9996C84.8984 67.2996 83.1984 70.5996 81.2984 73.9996ZM89.5984 70.6996C91.0984 74.1996 92.2984 77.5996 93.3984 80.9996C89.9984 81.7996 86.3984 82.3996 82.5984 82.8996C83.7984 80.9996 85.0984 78.9996 86.1984 76.8996C87.3984 74.7996 88.4984 72.6996 89.5984 70.6996ZM63.9984 97.7996C61.5984 95.1996 59.2984 92.3996 57.0984 89.4996C59.3984 89.5996 61.6984 89.6996 63.9984 89.6996C66.2984 89.6996 68.5984 89.5996 70.8984 89.4996C68.6984 92.3996 66.3984 95.1996 63.9984 97.7996ZM45.3984 82.7996C41.5984 82.2996 37.9984 81.6996 34.5984 80.8996C35.6984 77.5996 36.8984 74.0996 38.3984 70.5996C39.4984 72.5996 40.5984 74.6996 41.7984 76.6996C42.9984 78.8996 44.1984 80.7996 45.3984 82.7996ZM38.3984 57.2996C36.8984 53.7996 35.6984 50.3996 34.5984 46.9996C37.9984 46.1996 41.5984 45.5996 45.3984 45.0996C44.1984 46.9996 42.8984 48.9996 41.7984 51.0996C40.5984 53.1996 39.4984 55.2996 38.3984 57.2996ZM63.9984 30.1996C66.3984 32.7996 68.6984 35.5996 70.8984 38.4996C68.5984 38.3996 66.2984 38.2996 63.9984 38.2996C61.6984 38.2996 59.3984 38.3996 57.0984 38.4996C59.2984 35.5996 61.5984 32.7996 63.9984 30.1996ZM86.1984 51.1996L82.5984 45.1996C86.3984 45.6996 89.9984 46.2996 93.3984 47.0996C92.2984 50.3996 91.0984 53.8996 89.5984 57.3996C88.4984 55.2996 87.3984 53.1996 86.1984 51.1996ZM31.6984 34.9996C29.9984 24.4996 31.3984 17.0996 35.4984 14.6996C36.4984 14.0996 37.6984 13.7996 38.9984 13.7996C44.9984 13.7996 52.4984 18.6996 59.9984 26.0996C56.4984 29.8996 52.9984 34.2996 49.5984 39.0996C43.7984 39.5996 38.2984 40.4996 33.0984 41.5996C32.4984 39.2996 32.0984 37.0996 31.6984 34.9996ZM6.99844 63.9996C6.99844 59.2996 12.6984 54.2996 22.6984 50.5996C24.6984 49.7996 26.8984 49.0996 29.0984 48.4996C30.6984 53.4996 32.6984 58.7996 35.0984 64.0996C32.6984 69.3996 30.5984 74.5996 29.0984 79.5996C15.2984 75.5996 6.99844 69.5996 6.99844 63.9996ZM35.4984 113.3C31.3984 110.9 29.9984 103.5 31.6984 92.9996C31.9984 90.8996 32.4984 88.6996 33.0984 86.3996C38.2984 87.5996 43.7984 88.3996 49.5984 88.8996C52.9984 93.6996 56.4984 97.9996 59.9984 101.9C52.5984 109.2 45.0984 114.2 38.9984 114.2C37.6984 114.2 36.4984 113.9 35.4984 113.3ZM96.2984 92.9996C97.9984 103.5 96.5984 110.9 92.4984 113.3C91.4984 113.9 90.2984 114.2 88.9984 114.2C82.9984 114.2 75.4984 109.3 67.9984 101.9C71.4984 98.0996 74.9984 93.6996 78.3984 88.8996C84.1984 88.3996 89.6984 87.4996 94.8984 86.3996C95.4984 88.6996 95.8984 90.8996 96.2984 92.9996ZM105.298 77.3996C103.298 78.1996 101.098 78.8996 98.8984 79.4996C97.2984 74.4996 95.2984 69.1996 92.8984 63.8996C95.2984 58.5996 97.3984 53.3996 98.8984 48.3996C112.698 52.3996 120.998 58.3996 120.998 63.9996C120.998 68.6996 115.198 73.6996 105.298 77.3996Z" fill="#61DAFB"/>
</svg>
